<svg width="21" height="17" viewBox="0 0 21 17" fill="none" xmlns="http://www.w3.org/2000/svg">
<path d="M20.5 1.9506C19.7483 2.2767 18.9534 2.49226 18.14 2.5906C18.9982 2.07792 19.6413 1.27138 19.95 0.3206C19.1436 0.800663 18.2608 1.1389 17.34 1.3206C16.7245 0.653172 15.905 0.208897 15.0098 0.0574517C14.1147 -0.0939932 13.1945 0.0559587 12.3938 0.48379C11.593 0.911621 10.9569 1.59313 10.5852 2.42144C10.2135 3.24974 10.1273 4.17799 10.34 5.0606C8.70943 4.97813 7.11444 4.55355 5.65865 3.81446C4.20287 3.07537 2.91885 2.03829 1.89 0.7706C1.52914 1.40077 1.33952 2.11442 1.34 2.8406C1.33872 3.51498 1.50422 4.17922 1.82176 4.77416C2.13929 5.36911 2.59902 5.87631 3.16 6.2506C2.50798 6.23286 1.86989 6.0579 1.3 5.7406V5.7906C1.30489 6.73549 1.63599 7.64969 2.23731 8.37857C2.83864 9.10744 3.67326 9.60624 4.6 9.7906C4.24326 9.89917 3.87287 9.95641 3.5 9.9606C3.24189 9.95759 2.98442 9.93418 2.73 9.8906C2.99391 10.7034 3.50462 11.4137 4.19107 11.9228C4.87753 12.4318 5.70558 12.7142 6.56 12.7306C5.1172 13.8659 3.33588 14.4855 1.5 14.4906C1.16574 14.4917 0.831736 14.4717 0.5 14.4306C2.37443 15.6409 4.55881 16.2833 6.79 16.2806C8.32969 16.2966 9.85714 16.0056 11.2831 15.4247C12.7091 14.8437 14.005 13.9845 15.0952 12.8971C16.1854 11.8097 17.048 10.516 17.6326 9.09151C18.2172 7.66702 18.512 6.14033 18.5 4.6006C18.5 4.4306 18.5 4.2506 18.5 4.0706C19.2847 3.48541 19.9615 2.76803 20.5 1.9506Z" fill="#111827"/>
</svg>
