<svg width="21" height="20" viewBox="0 0 21 20" fill="none" xmlns="http://www.w3.org/2000/svg">
<path d="M18.91 0.000139831H1.97C1.77958 -0.00250479 1.5905 0.0323873 1.41357 0.102824C1.23663 0.17326 1.0753 0.27786 0.938797 0.410652C0.802292 0.543443 0.693281 0.701824 0.617992 0.876749C0.542702 1.05167 0.502608 1.23972 0.5 1.43014V18.5701C0.502608 18.7606 0.542702 18.9486 0.617992 19.1235C0.693281 19.2985 0.802292 19.4568 0.938797 19.5896C1.0753 19.7224 1.23663 19.827 1.41357 19.8975C1.5905 19.9679 1.77958 20.0028 1.97 20.0001H18.91C19.1004 20.0028 19.2895 19.9679 19.4664 19.8975C19.6434 19.827 19.8047 19.7224 19.9412 19.5896C20.0777 19.4568 20.1867 19.2985 20.262 19.1235C20.3373 18.9486 20.3774 18.7606 20.38 18.5701V1.43014C20.3774 1.23972 20.3373 1.05167 20.262 0.876749C20.1867 0.701824 20.0777 0.543443 19.9412 0.410652C19.8047 0.27786 19.6434 0.17326 19.4664 0.102824C19.2895 0.0323873 19.1004 -0.00250479 18.91 0.000139831ZM6.53 16.7401H3.53V7.74014H6.53V16.7401ZM5.03 6.48014C4.61626 6.48014 4.21947 6.31578 3.92691 6.02323C3.63436 5.73067 3.47 5.33388 3.47 4.92014C3.47 4.5064 3.63436 4.10961 3.92691 3.81705C4.21947 3.5245 4.61626 3.36014 5.03 3.36014C5.2497 3.33522 5.47218 3.35699 5.68288 3.42402C5.89357 3.49105 6.08774 3.60183 6.25266 3.7491C6.41757 3.89637 6.54953 4.07682 6.63987 4.27862C6.73022 4.48043 6.77692 4.69904 6.77692 4.92014C6.77692 5.14124 6.73022 5.35985 6.63987 5.56166C6.54953 5.76346 6.41757 5.94391 6.25266 6.09118C6.08774 6.23845 5.89357 6.34923 5.68288 6.41626C5.47218 6.48329 5.2497 6.50505 5.03 6.48014ZM17.35 16.7401H14.35V11.9101C14.35 10.7001 13.92 9.91014 12.83 9.91014C12.4927 9.91261 12.1642 10.0184 11.8888 10.2133C11.6135 10.4082 11.4045 10.6828 11.29 11.0001C11.2117 11.2352 11.1778 11.4827 11.19 11.7301V16.7301H8.19C8.19 16.7301 8.19 8.55014 8.19 7.73014H11.19V9.00014C11.4625 8.52725 11.8589 8.13766 12.3364 7.87334C12.814 7.60902 13.3546 7.47999 13.9 7.50014C15.9 7.50014 17.35 8.79014 17.35 11.5601V16.7401Z" fill="#111827"/>
</svg>
